<svg id="spider__grey" data-name="spider)_grey" xmlns="http://www.w3.org/2000/svg" width="48" height="45.36" viewBox="0 0 48 45.36">
  <path id="XMLID_40844_" d="M425.752,612.334h-6.681a.569.569,0,0,1-.571-.571v-6.891a.569.569,0,0,1,.571-.571h6.681a.569.569,0,0,1,.571.571v6.886A.574.574,0,0,1,425.752,612.334Zm-6.412-.84h6.148V605.14H419.34Z" transform="translate(-398.414 -576.615)" fill="#555d66"/>
  <path id="XMLID_40731_" d="M163.566,37.972h0a1.774,1.774,0,0,0,1.766-1.766v-7.04a1.774,1.774,0,0,0-1.766-1.766h0a1.774,1.774,0,0,0-1.766,1.766v7.045a1.77,1.77,0,0,0,1.766,1.761Z" transform="translate(-154.034 -27.4)" fill="#555d66"/>
  <path id="XMLID_40730_" d="M463.566,37.972h0a1.774,1.774,0,0,0,1.766-1.766v-7.04a1.774,1.774,0,0,0-1.766-1.766h0a1.774,1.774,0,0,0-1.766,1.766v7.045a1.77,1.77,0,0,0,1.766,1.761Z" transform="translate(-439.636 -27.4)" fill="#555d66"/>
  <path id="XMLID_40729_" d="M763.566,37.972h0a1.774,1.774,0,0,0,1.766-1.766v-7.04a1.774,1.774,0,0,0-1.766-1.766h0a1.774,1.774,0,0,0-1.766,1.766v7.045a1.77,1.77,0,0,0,1.766,1.761Z" transform="translate(-725.237 -27.4)" fill="#555d66"/>
  <path id="XMLID_40728_" d="M7.78,415.029H.019a.021.021,0,0,1-.019-.02v-7.99A.021.021,0,0,1,.019,407H7.785a.021.021,0,0,1,.019.019v8a.026.026,0,0,1-.024.01Z" transform="translate(0 -388.783)" fill="#555d66"/>
  <path id="XMLID_40727_" d="M426.785,813.329h-7.766a.021.021,0,0,1-.019-.019v-7.99a.021.021,0,0,1,.019-.019h7.766a.021.021,0,0,1,.019.019v8A.027.027,0,0,1,426.785,813.329Z" transform="translate(-398.89 -767.969)" fill="#555d66"/>
  <path id="XMLID_40726_" d="M7.78,813.329H.019a.021.021,0,0,1-.019-.02v-7.99a.021.021,0,0,1,.019-.019H7.785a.021.021,0,0,1,.019.019v8a.026.026,0,0,1-.024.01Z" transform="translate(0 -767.969)" fill="#555d66"/>
  <path id="XMLID_40725_" d="M217.28,813.329h-7.761a.021.021,0,0,1-.019-.019v-7.99a.021.021,0,0,1,.019-.019h7.766a.021.021,0,0,1,.019.019v8a.026.026,0,0,1-.024.009Z" transform="translate(-199.445 -767.969)" fill="#555d66"/>
  <path id="XMLID_40724_" d="M217.28,612.334h-7.761a.021.021,0,0,1-.019-.019v-8a.021.021,0,0,1,.019-.019h7.766a.021.021,0,0,1,.019.019v8a.032.032,0,0,1-.024.019Z" transform="translate(-199.445 -576.615)" fill="#555d66"/>
  <path id="XMLID_40723_" d="M7.78,612.334H.019a.021.021,0,0,1-.019-.02v-8a.021.021,0,0,1,.019-.019H7.785a.021.021,0,0,1,.019.019v8a.032.032,0,0,1-.024.02Z" transform="translate(0 -576.615)" fill="#555d66"/>
  <path id="XMLID_40722_" d="M426.785,415.029h-7.766a.021.021,0,0,1-.019-.019v-7.99a.021.021,0,0,1,.019-.019h7.766a.021.021,0,0,1,.019.019v8A.027.027,0,0,1,426.785,415.029Z" transform="translate(-398.89 -388.783)" fill="#555d66"/>
  <path id="XMLID_40721_" d="M216.08,415.029h-7.761a.021.021,0,0,1-.019-.019v-7.99a.021.021,0,0,1,.019-.019h7.766a.021.021,0,0,1,.019.019v8a.026.026,0,0,1-.024.009Z" transform="translate(-198.303 -388.783)" fill="#555d66"/>
  <path id="XMLID_40720_" d="M7.7,415.029H.1a.1.1,0,0,1-.1-.1L7.7,407a.1.1,0,0,1,.1.1v7.837a.1.1,0,0,1-.1.092Z" transform="translate(0 -388.783)" fill="#555d66"/>
  <path id="XMLID_40719_" d="M845.28,415.029h-7.761a.021.021,0,0,1-.019-.019v-7.99a.021.021,0,0,1,.019-.019h7.766a.021.021,0,0,1,.019.019v8a.026.026,0,0,1-.024.009Z" transform="translate(-797.304 -388.783)" fill="#555d66"/>
  <path id="XMLID_40718_" d="M845.2,415.029h-7.6a.1.1,0,0,1-.1-.1L845.2,407a.1.1,0,0,1,.1.1v7.837a.1.1,0,0,1-.1.092Z" transform="translate(-797.304 -388.783)" fill="#555d66"/>
  <path id="XMLID_40717_" d="M635.885,415.029h-7.766a.021.021,0,0,1-.019-.019v-7.99a.021.021,0,0,1,.019-.019h7.766a.021.021,0,0,1,.019.019v8A.026.026,0,0,1,635.885,415.029Z" transform="translate(-597.954 -388.783)" fill="#555d66"/>
  <path id="XMLID_40716_" d="M635.9,415.029h-7.6a.1.1,0,0,1-.1-.1L635.9,407a.1.1,0,0,1,.1.1v7.837a.1.1,0,0,1-.1.092Z" transform="translate(-598.049 -388.783)" fill="#555d66"/>
  <path id="XMLID_40715_" d="M845.28,612.334h-7.761a.021.021,0,0,1-.019-.019v-8a.021.021,0,0,1,.019-.019h7.766a.021.021,0,0,1,.019.019v8A.032.032,0,0,1,845.28,612.334Z" transform="translate(-797.304 -576.615)" fill="#555d66"/>
  <path id="XMLID_40714_" d="M845.2,612.334h-7.6a.1.1,0,0,1-.1-.1l7.7-7.938a.1.1,0,0,1,.1.1v7.837a.1.1,0,0,1-.1.1Z" transform="translate(-797.304 -576.615)" fill="#555d66"/>
  <path id="XMLID_40713_" d="M635.885,612.334h-7.766a.021.021,0,0,1-.019-.019v-8a.021.021,0,0,1,.019-.019h7.766a.021.021,0,0,1,.019.019v8C635.9,612.324,635.894,612.334,635.885,612.334Z" transform="translate(-597.954 -576.615)" fill="#555d66"/>
  <path id="XMLID_40712_" d="M635.9,612.429h-7.6a.1.1,0,0,1-.1-.1l7.7-7.933a.1.1,0,0,1,.1.1v7.837a.1.1,0,0,1-.1.1Z" transform="translate(-598.049 -576.71)" fill="#555d66"/>
  <path id="XMLID_40711_" d="M845.28,813.329h-7.761a.021.021,0,0,1-.019-.019v-7.99a.021.021,0,0,1,.019-.019h7.766a.021.021,0,0,1,.019.019v8a.026.026,0,0,1-.024.009Z" transform="translate(-797.304 -767.969)" fill="#555d66"/>
  <path id="XMLID_40710_" d="M845.2,813.329h-7.6a.1.1,0,0,1-.1-.1l7.7-7.933a.1.1,0,0,1,.1.1v7.837A.1.1,0,0,1,845.2,813.329Z" transform="translate(-797.304 -767.969)" fill="#555d66"/>
  <path id="XMLID_40709_" d="M635.885,813.329h-7.766a.021.021,0,0,1-.019-.019v-7.99a.021.021,0,0,1,.019-.019h7.766a.021.021,0,0,1,.019.019v8A.026.026,0,0,1,635.885,813.329Z" transform="translate(-597.954 -767.969)" fill="#555d66"/>
  <path id="XMLID_40708_" d="M635.9,813.329h-7.6a.1.1,0,0,1-.1-.1l7.7-7.933a.1.1,0,0,1,.1.1v7.837a.1.1,0,0,1-.1.1Z" transform="translate(-598.049 -767.969)" fill="#555d66"/>
  <path id="XMLID_40707_" d="M48,129.777v10.606a.091.091,0,0,1-.091.091H.091A.091.091,0,0,1,0,140.383V129.71a.7.7,0,0,1,.7-.7H5a.332.332,0,0,1,.331.331v3.609A4.215,4.215,0,0,0,8.9,137.163a4.138,4.138,0,0,0,4.7-4.05v-3.777a.332.332,0,0,1,.331-.331H19.4a.332.332,0,0,1,.331.331v3.609a4.215,4.215,0,0,0,3.566,4.214,4.138,4.138,0,0,0,4.7-4.05v-3.777a.332.332,0,0,1,.331-.331h5.467a.332.332,0,0,1,.331.331v3.753a4.075,4.075,0,0,0,3.907,4.113,4.023,4.023,0,0,0,4.094-4.084v-3.777a.332.332,0,0,1,.331-.331h4.776A.777.777,0,0,1,48,129.777Z" transform="translate(0 -124.124)" fill="#555d66"/>
  <path id="XMLID_40706_" d="M426.785,415.029h-7.766a.021.021,0,0,1-.019-.019v-7.99a.021.021,0,0,1,.019-.019h7.766a.021.021,0,0,1,.019.019v8A.027.027,0,0,1,426.785,415.029Z" transform="translate(-398.89 -388.783)" fill="#555d66"/>
  <path id="XMLID_40705_" d="M426.7,415.029h-7.6a.1.1,0,0,1-.1-.1L426.7,407a.1.1,0,0,1,.1.1v7.837a.1.1,0,0,1-.1.092Z" transform="translate(-398.89 -388.783)" fill="#555d66"/>
  <path id="XMLID_40703_" d="M217.085,415.029h-7.766a.021.021,0,0,1-.019-.019v-7.99a.021.021,0,0,1,.019-.019h7.766a.021.021,0,0,1,.019.019v8A.026.026,0,0,1,217.085,415.029Z" transform="translate(-199.255 -388.783)" fill="#555d66"/>
  <path id="XMLID_40702_" d="M217.1,415.029h-7.6a.1.1,0,0,1-.1-.1L217.1,407a.1.1,0,0,1,.1.1v7.837a.091.091,0,0,1-.1.092Z" transform="translate(-199.35 -388.783)" fill="#555d66"/>
  <path id="XMLID_40700_" d="M7.78,612.334H.019a.021.021,0,0,1-.019-.02v-8a.021.021,0,0,1,.019-.019H7.785a.021.021,0,0,1,.019.019v8a.032.032,0,0,1-.024.02Z" transform="translate(0 -576.615)" fill="#555d66"/>
  <path id="XMLID_40699_" d="M7.7,612.429H.1a.1.1,0,0,1-.1-.1L7.7,604.4a.1.1,0,0,1,.1.1v7.837A.1.1,0,0,1,7.7,612.429Z" transform="translate(0 -576.71)" fill="#555d66"/>
  <g id="XMLID_40695_" transform="translate(0 37.331)" opacity="0.29">
    <path id="XMLID_40697_" d="M7.78,813.329H.019a.021.021,0,0,1-.019-.02v-7.99a.021.021,0,0,1,.019-.019H7.785a.021.021,0,0,1,.019.019v8a.026.026,0,0,1-.024.01Z" transform="translate(0 -805.3)" fill="#555d66"/>
    <path id="XMLID_40696_" d="M7.7,813.329H.1a.1.1,0,0,1-.1-.1L7.7,805.3a.1.1,0,0,1,.1.1v7.837A.1.1,0,0,1,7.7,813.329Z" transform="translate(0 -805.3)" fill="#555d66"/>
  </g>
  <path id="XMLID_40694_" d="M217.085,612.334h-7.766a.021.021,0,0,1-.019-.019v-8a.021.021,0,0,1,.019-.019h7.766a.021.021,0,0,1,.019.019v8A.021.021,0,0,1,217.085,612.334Z" transform="translate(-199.255 -576.615)" fill="#555d66"/>
  <path id="XMLID_40693_" d="M217.1,612.429h-7.6a.1.1,0,0,1-.1-.1l7.7-7.933a.1.1,0,0,1,.1.1v7.837A.1.1,0,0,1,217.1,612.429Z" transform="translate(-199.35 -576.71)" fill="#555d66"/>
  <g id="XMLID_40689_" transform="translate(0.01 37.331)">
    <path id="XMLID_40691_" d="M7.985,813.329H.219A.021.021,0,0,1,.2,813.31v-7.99a.021.021,0,0,1,.019-.019H7.985A.021.021,0,0,1,8,805.32v8A.027.027,0,0,1,7.985,813.329Z" transform="translate(-0.2 -805.3)" fill="#555d66"/>
    <path id="XMLID_40690_" d="M8,813.329H.4a.1.1,0,0,1-.1-.1L8,805.3a.1.1,0,0,1,.1.1v7.837A.1.1,0,0,1,8,813.329Z" transform="translate(-0.295 -805.3)" fill="#555d66"/>
  </g>
  <g id="XMLID_40686_" transform="translate(10.06 37.331)">
    <path id="XMLID_40688_" d="M217.385,813.329h-7.766a.021.021,0,0,1-.019-.019v-7.99a.021.021,0,0,1,.019-.019h7.766a.021.021,0,0,1,.019.019v8A.027.027,0,0,1,217.385,813.329Z" transform="translate(-209.6 -805.3)" fill="#555d66"/>
    <path id="XMLID_40687_" d="M217.4,813.329h-7.6a.1.1,0,0,1-.1-.1l7.7-7.933a.1.1,0,0,1,.1.1v7.837A.1.1,0,0,1,217.4,813.329Z" transform="translate(-209.695 -805.3)" fill="#555d66"/>
  </g>
  <g id="XMLID_40683_" transform="translate(20.11 37.331)">
    <path id="XMLID_40685_" d="M426.785,813.329h-7.766a.021.021,0,0,1-.019-.019v-7.99a.021.021,0,0,1,.019-.019h7.766a.021.021,0,0,1,.019.019v8A.027.027,0,0,1,426.785,813.329Z" transform="translate(-419 -805.3)" fill="#555d66"/>
    <path id="XMLID_40684_" d="M426.7,813.329h-7.6a.1.1,0,0,1-.1-.1l7.7-7.933a.1.1,0,0,1,.1.1v7.837A.1.1,0,0,1,426.7,813.329Z" transform="translate(-419 -805.3)" fill="#555d66"/>
  </g>
  <path id="XMLID_40681_" d="M7.78,415.029H.019a.021.021,0,0,1-.019-.02v-7.99A.021.021,0,0,1,.019,407H7.785a.021.021,0,0,1,.019.019v8a.026.026,0,0,1-.024.01Z" transform="translate(0 -388.783)" fill="#555d66"/>
  <path id="XMLID_40680_" d="M7.7,415.029H.1a.1.1,0,0,1-.1-.1L7.7,407a.1.1,0,0,1,.1.1v7.837a.1.1,0,0,1-.1.092Z" transform="translate(0 -388.783)" fill="#555d66"/>
</svg>
